<svg width="32" height="32" viewBox="0 0 32 32" fill="none" xmlns="http://www.w3.org/2000/svg">
  <rect width="32" height="32" rx="6" fill="#0f172a"/>
  <rect x="0.5" y="0.5" width="31" height="31" rx="5.5" stroke="url(#border)" stroke-opacity="0.3"/>
  
  <!-- Blockchain layers -->
  <path d="M16 6L6 11L16 16L26 11L16 6Z" fill="url(#grad1)" opacity="0.9"/>
  <path d="M6 21L16 26L26 21V16L16 21L6 16V21Z" fill="url(#grad2)" opacity="0.7"/>
  <path d="M6 16L16 21L26 16V11L16 16L6 11V16Z" fill="url(#grad3)" opacity="0.8"/>
  
  <defs>
    <linearGradient id="grad1" x1="6" y1="6" x2="26" y2="16">
      <stop offset="0%" stop-color="#10b981"/>
      <stop offset="100%" stop-color="#06b6d4"/>
    </linearGradient>
    <linearGradient id="grad2" x1="6" y1="16" x2="26" y2="26">
      <stop offset="0%" stop-color="#06b6d4"/>
      <stop offset="100%" stop-color="#3b82f6"/>
    </linearGradient>
    <linearGradient id="grad3" x1="6" y1="11" x2="26" y2="21">
      <stop offset="0%" stop-color="#10b981"/>
      <stop offset="100%" stop-color="#3b82f6"/>
    </linearGradient>
    <linearGradient id="border" x1="0" y1="0" x2="32" y2="32">
      <stop offset="0%" stop-color="#10b981"/>
      <stop offset="100%" stop-color="#3b82f6"/>
    </linearGradient>
  </defs>
</svg>
